<svg width="40" height="40" viewBox="0 0 40 40" fill="none" xmlns="http://www.w3.org/2000/svg">
<path d="M4.19015 19.619H21.333V22.6667H4.19015V19.619ZM1.33301 12H15.6187V15.0476H1.33301V12Z" fill="white"/>
<path d="M38.5584 19.4732L34.5608 10.1408C34.4582 9.90092 34.2875 9.69647 34.0698 9.55284C33.8521 9.40921 33.597 9.33272 33.3362 9.33287H29.3386V6.66646C29.3386 6.31287 29.1982 5.97376 28.9483 5.72374C28.6984 5.47371 28.3595 5.33325 28.0061 5.33325H6.68551V7.99966H26.6735V24.7394C26.0663 25.0921 25.5349 25.5617 25.11 26.1209C24.6851 26.6801 24.375 27.318 24.1977 27.9977H15.824C15.4997 26.741 14.7284 25.6457 13.6547 24.9172C12.5809 24.1887 11.2785 23.8771 9.99153 24.0406C8.70455 24.2042 7.52136 24.8317 6.66376 25.8056C5.80615 26.7795 5.33301 28.033 5.33301 29.3309C5.33301 30.6289 5.80615 31.8823 6.66376 32.8562C7.52136 33.8301 8.70455 34.4577 9.99153 34.6212C11.2785 34.7848 12.5809 34.4731 13.6547 33.7446C14.7284 33.0162 15.4997 31.9209 15.824 30.6641H24.1977C24.4875 31.8083 25.1505 32.8232 26.0816 33.5481C27.0127 34.273 28.1588 34.6666 29.3386 34.6666C30.5184 34.6666 31.6645 34.273 32.5956 33.5481C33.5267 32.8232 34.1896 31.8083 34.4795 30.6641H37.3338C37.6872 30.6641 38.0261 30.5237 38.2761 30.2737C38.5259 30.0236 38.6663 29.6845 38.6663 29.3309V19.9985C38.6664 19.8179 38.6297 19.6392 38.5584 19.4732ZM10.6831 31.9973C10.156 31.9973 9.64075 31.841 9.20248 31.548C8.76421 31.255 8.42262 30.8385 8.22091 30.3513C8.0192 29.8641 7.96642 29.328 8.06925 28.8107C8.17208 28.2935 8.42591 27.8184 8.79862 27.4455C9.17134 27.0726 9.64621 26.8186 10.1632 26.7158C10.6802 26.6129 11.216 26.6657 11.703 26.8675C12.19 27.0693 12.6062 27.4111 12.899 27.8496C13.1919 28.288 13.3482 28.8036 13.3482 29.3309C13.3475 30.0379 13.0665 30.7157 12.5668 31.2156C12.0672 31.7155 11.3897 31.9966 10.6831 31.9973ZM29.3386 11.9993H32.4567L35.3137 18.6653H29.3386V11.9993ZM29.3386 31.9973C28.8115 31.9973 28.2962 31.841 27.858 31.548C27.4197 31.255 27.0781 30.8385 26.8764 30.3513C26.6747 29.8641 26.6219 29.328 26.7247 28.8107C26.8276 28.2935 27.0814 27.8184 27.4541 27.4455C27.8268 27.0726 28.3017 26.8186 28.8187 26.7158C29.3356 26.6129 29.8715 26.6657 30.3585 26.8675C30.8455 27.0693 31.2617 27.4111 31.5545 27.8496C31.8474 28.288 32.0037 28.8036 32.0037 29.3309C32.003 30.0379 31.7219 30.7157 31.2223 31.2156C30.7227 31.7155 30.0452 31.9966 29.3386 31.9973ZM36.0013 27.9977H34.4795C34.186 26.8557 33.522 25.8435 32.5916 25.1197C31.6613 24.3959 30.5171 24.0014 29.3386 23.9981V21.3317H36.0013V27.9977Z" fill="white"/>
</svg>
