<svg width="40" height="40" viewBox="0 0 40 40" fill="none" xmlns="http://www.w3.org/2000/svg">
<path d="M19.9997 11.6666C20.9201 11.6666 21.6663 10.9204 21.6663 9.99992C21.6663 9.07944 20.9201 8.33325 19.9997 8.33325C19.0792 8.33325 18.333 9.07944 18.333 9.99992C18.333 10.9204 19.0792 11.6666 19.9997 11.6666Z" fill="white"/>
<path d="M10 28.3333H30V31.6666H10V28.3333ZM16.6667 19.7166L21.32 24.3733L27.8733 17.8149L30 19.9999V13.3333H23.3333L25.5167 15.4583L21.3183 19.6566L16.6667 14.9999L10 21.6666L12.3567 24.0233L16.6667 19.7166Z" fill="white"/>
<path d="M31.6663 4.9999H26.1697C26.006 4.75347 25.8279 4.51695 25.6363 4.29157L25.6197 4.27157C24.3951 2.84532 22.6723 1.94037 20.803 1.74157C20.2722 1.64051 19.7271 1.64051 19.1963 1.74157C17.3271 1.94037 15.6042 2.84532 14.3797 4.27157L14.363 4.29157C14.1715 4.51641 13.9934 4.75238 13.8297 4.99823L8.33301 4.9999C7.00733 5.00122 5.73633 5.52843 4.79894 6.46583C3.86154 7.40322 3.33433 8.67422 3.33301 9.9999V33.3332C3.33433 34.6589 3.86154 35.9299 4.79894 36.8673C5.73633 37.8047 7.00733 38.3319 8.33301 38.3332H31.6663C32.992 38.3319 34.263 37.8047 35.2004 36.8673C36.1378 35.9299 36.665 34.6589 36.6663 33.3332V9.9999C36.665 8.67422 36.1378 7.40322 35.2004 6.46583C34.263 5.52843 32.992 5.00122 31.6663 4.9999ZM33.333 33.3332C33.333 33.7753 33.1574 34.1992 32.8449 34.5117C32.5323 34.8243 32.1084 34.9999 31.6663 34.9999H8.33301C7.89112 34.9995 7.46745 34.8237 7.15498 34.5113C6.84252 34.1988 6.66678 33.7751 6.66634 33.3332V9.9999C6.66678 9.55801 6.84252 9.13434 7.15498 8.82188C7.46745 8.50941 7.89112 8.33368 8.33301 8.33323H15.9163C16.1076 7.39133 16.6186 6.54451 17.3628 5.93625C18.107 5.328 19.0385 4.99572 19.9997 4.99572C20.9608 4.99572 21.8924 5.328 22.6366 5.93625C23.3807 6.54451 23.8917 7.39133 24.083 8.33323H31.6663C32.1082 8.33368 32.5319 8.50941 32.8444 8.82188C33.1568 9.13434 33.3326 9.55801 33.333 9.9999V33.3332Z" fill="white"/>
</svg>
