<svg width="40" height="40" viewBox="0 0 40 40" fill="none" xmlns="http://www.w3.org/2000/svg">
<mask id="mask0_37_345" style="mask-type:luminance" maskUnits="userSpaceOnUse" x="-1" y="2" width="40" height="36">
<path d="M19.333 36H4.03301C3.31692 36 2.63017 35.6839 2.12382 35.1213C1.61747 34.5587 1.33301 33.7956 1.33301 33V7C1.33301 6.20435 1.61747 5.44129 2.12382 4.87868C2.63017 4.31607 3.31692 4 4.03301 4H34.633C35.3491 4 36.0358 4.31607 36.5422 4.87868C37.0485 5.44129 37.333 6.20435 37.333 7V19.059" stroke="white" stroke-width="3.1" stroke-linecap="round" stroke-linejoin="round"/>
<path d="M3 5C3 4.73478 3.26076 4.48043 3.72491 4.29289C4.18906 4.10536 4.81859 4 5.475 4H33.525C34.1814 4 34.8109 4.10536 35.2751 4.29289C35.7392 4.48043 36 4.73478 36 5V8H3V5Z" fill="white" stroke="white" stroke-width="1.5"/>
<path d="M30.6667 30.6666C32.1394 30.6666 33.3333 29.4727 33.3333 27.9999C33.3333 26.5272 32.1394 25.3333 30.6667 25.3333C29.1939 25.3333 28 26.5272 28 27.9999C28 29.4727 29.1939 30.6666 30.6667 30.6666Z" stroke="white" stroke-width="3"/>
<path d="M30.666 34.6666V30.8571M30.666 25.1428V21.3333M24.666 31.3333L28.0946 29.4285M33.2374 26.5713L36.666 24.6666M24.666 24.6666L28.0946 26.5713M33.2374 29.4285L36.666 31.3333" stroke="white" stroke-width="3" stroke-linecap="round" stroke-linejoin="round"/>
</mask>
<g mask="url(#mask0_37_345)">
<path d="M0 -1.33325H40V38.6667H0V-1.33325Z" fill="white"/>
</g>
</svg>
