<svg width="40" height="40" viewBox="0 0 40 40" fill="none" xmlns="http://www.w3.org/2000/svg">
<path d="M13.3337 19.9999H26.667V23.3333H13.3337V19.9999ZM16.667 33.3333H10.0003V6.66659H21.667V14.9999H30.0003V20.1666L33.3337 16.8333V13.3333L23.3337 3.33325H10.0003C9.11627 3.33325 8.26842 3.68444 7.6433 4.30956C7.01818 4.93468 6.66699 5.78253 6.66699 6.66659V33.3333C6.66699 34.2173 7.01818 35.0652 7.6433 35.6903C8.26842 36.3154 9.11627 36.6666 10.0003 36.6666H16.667V33.3333ZM13.3337 29.9999H20.167L21.667 28.4999V26.6666H13.3337V29.9999ZM33.667 21.6666C33.8337 21.6666 34.167 21.8333 34.3337 21.9999L36.5003 24.1666C36.8337 24.4999 36.8337 25.1666 36.5003 25.4999L34.8337 27.1666L31.3337 23.6666L33.0003 21.9999C33.167 21.8333 33.3337 21.6666 33.667 21.6666ZM33.667 28.1666L23.5003 38.3333H20.0003V34.8333L30.167 24.6666L33.667 28.1666Z" fill="white"/>
</svg>
