<svg width="40" height="40" viewBox="0 0 40 40" fill="none" xmlns="http://www.w3.org/2000/svg">
<path d="M18.3337 33.3333V36.6666H5.00033C3.16699 36.6666 1.66699 35.1666 1.66699 33.3333V6.66659C1.66699 4.83325 3.16699 3.33325 5.00033 3.33325H35.0003C36.8337 3.33325 38.3337 4.83325 38.3337 6.66659V20.1666L38.0003 19.8333C37.167 18.9999 36.167 18.4999 35.0003 18.4999V9.99992H5.00033V33.3333H18.3337ZM35.667 22.1666L37.8337 24.3333C38.167 24.6666 38.167 25.3333 37.8337 25.6666L36.167 27.3333L32.667 23.8333L34.3337 22.1666C34.5003 21.9999 34.667 21.8333 35.0003 21.8333C35.3337 21.8333 35.5003 21.9999 35.667 22.1666ZM35.167 28.1666L25.167 38.3333H21.667V34.8333L31.8337 24.6666L35.167 28.1666Z" fill="white"/>
</svg>
